<svg width="64" height="64" viewBox="0 0 64 64" fill="none" xmlns="http://www.w3.org/2000/svg">
<path d="M32.1453 57.9429C34.4136 57.9429 36.2524 56.0884 36.2524 53.8007C36.2524 51.513 34.4136 49.6584 32.1453 49.6584C29.8769 49.6584 28.0381 51.513 28.0381 53.8007C28.0381 56.0884 29.8769 57.9429 32.1453 57.9429Z" stroke="black" stroke-width="1.92" stroke-miterlimit="10"/>
<path d="M32.1453 12.8386V49.6584" stroke="black" stroke-width="1.92" stroke-miterlimit="10"/>
<path d="M14.3474 45.9763C16.6157 45.9763 18.4546 44.1218 18.4546 41.8341C18.4546 39.5464 16.6157 37.6919 14.3474 37.6919C12.0791 37.6919 10.2402 39.5464 10.2402 41.8341C10.2402 44.1218 12.0791 45.9763 14.3474 45.9763Z" stroke="black" stroke-width="1.92" stroke-miterlimit="10"/>
<path d="M32.1452 12.8386V25.7255C32.1452 33.8627 25.6103 40.4535 17.542 40.4535" stroke="black" stroke-width="1.92" stroke-miterlimit="10"/>
<path d="M49.9431 45.9766C52.2114 45.9766 54.0503 44.1221 54.0503 41.8344C54.0503 39.5467 52.2114 37.6921 49.9431 37.6921C47.6748 37.6921 45.8359 39.5467 45.8359 41.8344C45.8359 44.1221 47.6748 45.9766 49.9431 45.9766Z" stroke="black" stroke-width="1.92" stroke-miterlimit="10"/>
<path d="M32.1453 6.39526V25.7257C32.1453 33.8628 38.6802 40.4536 46.7485 40.4536" stroke="black" stroke-width="1.92" stroke-miterlimit="10"/>
<path d="M41.2539 13.5842L32.1452 5.76001L23.0364 13.5842" stroke="black" stroke-width="1.92" stroke-miterlimit="10"/>
</svg>
