<svg width="64" height="64" viewBox="0 0 64 64" fill="none" xmlns="http://www.w3.org/2000/svg">
<path d="M8.61515 12.2422C11.279 9.71309 14.822 8.32007 18.5908 8.32007C22.3597 8.32007 25.9027 9.71309 28.5665 12.2422L57.1281 39.3608C60.9336 42.9738 60.9336 48.8531 57.1281 52.4661C55.2843 54.2185 52.8342 55.1806 50.2253 55.1806C47.6164 55.1806 45.1662 54.2165 43.3225 52.4661L30.7114 40.4949L30.7216 40.4853L15.6482 26.1724C14.6246 25.2025 14.0609 23.91 14.0609 22.5382C14.0609 21.1645 14.6246 19.8739 15.6482 18.902C16.6698 17.9321 18.0292 17.395 19.4761 17.395C20.923 17.395 22.2824 17.9321 23.3039 18.902L47.4617 41.8358L45.9517 43.2694L21.794 20.3356C20.5546 19.1609 18.3955 19.1609 17.1582 20.3356C16.5395 20.923 16.1976 21.7055 16.1976 22.5382C16.1976 23.3709 16.5395 24.1515 17.1582 24.7388L44.8304 51.0325C46.2712 52.4023 48.1841 53.1539 50.2232 53.1539C52.2623 53.1539 54.1752 52.4023 55.616 51.0325C58.5892 48.2097 58.5892 43.6152 55.616 40.7925L27.0545 13.6739C24.7915 11.5273 21.7858 10.3449 18.5888 10.3449C15.3918 10.3449 12.384 11.5273 10.1231 13.6739C7.86219 15.8204 6.61472 18.676 6.61472 21.7113C6.61472 24.7466 7.86219 27.6041 10.1231 29.7507L35.1559 53.5171L33.6459 54.9507L8.61311 31.1823C5.94723 28.6513 4.47998 25.2876 4.47998 21.7094C4.47998 18.1311 5.94723 14.7674 8.61311 12.2383L8.61515 12.2422Z" fill="black"/>
</svg>
