<svg width="64" height="64" viewBox="0 0 64 64" fill="none" xmlns="http://www.w3.org/2000/svg">
<path d="M31.9803 7.67993C18.5595 7.67993 7.68018 18.5592 7.68018 31.9801C7.68018 45.401 18.5613 56.2802 31.9803 56.2802C45.4012 56.2802 56.2805 45.401 56.2805 31.9801C56.2805 18.5592 45.4012 7.67993 31.9803 7.67993ZM31.9803 54.3367C19.6534 54.3367 9.62375 44.307 9.62375 31.9801C9.62375 19.6532 19.6516 9.62351 31.9803 9.62351C44.3073 9.62351 54.3369 19.6532 54.3369 31.9801C54.3369 44.307 44.3091 54.3367 31.9803 54.3367Z" fill="black"/>
<path d="M42.7608 22.8128L27.1557 37.9439L21.6896 32.4778C21.1208 31.909 20.1982 31.909 19.6275 32.4778C19.0568 33.0467 19.0587 33.9692 19.6275 34.5399L26.1091 41.0215C26.3936 41.3059 26.7673 41.4482 27.1393 41.4482C27.5039 41.4482 27.8704 41.3114 28.153 41.0379L44.7882 24.9059C45.3662 24.3443 45.3808 23.4218 44.8211 22.8438C44.2577 22.264 43.3369 22.2513 42.759 22.811L42.7608 22.8128Z" fill="black"/>
</svg>
