<svg width="64" height="64" viewBox="0 0 64 64" fill="none" xmlns="http://www.w3.org/2000/svg">
<path d="M54.3114 13.8189C54.3114 11.1351 52.1344 8.95996 49.4506 8.95996C46.7668 8.95996 44.5898 11.1351 44.5898 13.8189C44.5898 16.1691 46.2599 18.1309 48.4788 18.5812V51.7277H50.4224V18.5812C52.6413 18.1309 54.3114 16.1691 54.3114 13.8189ZM49.4506 16.7361C47.8425 16.7361 46.5352 15.4288 46.5352 13.8207C46.5352 12.2126 47.8425 10.9054 49.4506 10.9054C51.0587 10.9054 52.366 12.2126 52.366 13.8207C52.366 15.4288 51.0587 16.7361 49.4506 16.7361Z" fill="black"/>
<path d="M15.4308 45.9937V12.8472H13.4872V45.9937C11.2684 46.444 9.6001 48.404 9.6001 50.756C9.6001 53.4398 11.777 55.6167 14.4609 55.6167C17.1447 55.6167 19.3216 53.4398 19.3216 50.756C19.3216 48.404 17.6515 46.444 15.4326 45.9937H15.4308ZM14.459 53.6732C12.8509 53.6732 11.5437 52.3659 11.5437 50.7578C11.5437 49.1497 12.8509 47.8425 14.459 47.8425C16.0671 47.8425 17.3744 49.1497 17.3744 50.7578C17.3744 52.3659 16.0671 53.6732 14.459 53.6732Z" fill="black"/>
<path d="M32.9265 27.526V12.8489H30.983V27.526C28.7641 27.9763 27.094 29.9381 27.094 32.2883C27.094 34.6384 28.7641 36.6002 30.983 37.0506V51.7277H32.9265V37.0506C35.1454 36.6002 36.8155 34.6384 36.8155 32.2883C36.8155 29.9381 35.1454 27.9763 32.9265 27.526ZM31.9548 35.2036C30.3467 35.2036 29.0394 33.8964 29.0394 32.2883C29.0394 30.6802 30.3467 29.3729 31.9548 29.3729C33.5629 29.3729 34.8701 30.6802 34.8701 32.2883C34.8701 33.8964 33.5629 35.2036 31.9548 35.2036Z" fill="black"/>
</svg>
