<svg width="64" height="64" viewBox="0 0 64 64" fill="none" xmlns="http://www.w3.org/2000/svg">
<path d="M31.6873 7.67993C31.6799 7.67993 31.6744 7.67993 31.667 7.67993C31.6633 7.67993 31.6614 7.67993 31.6577 7.67993C31.6485 7.67993 31.6393 7.68176 31.6282 7.68176C18.0414 7.71275 7.04004 18.5793 7.04004 31.9801C7.04004 45.3773 18.0414 56.2456 31.6282 56.2784C31.6374 56.2784 31.6467 56.2802 31.6577 56.2802C31.6614 56.2802 31.6651 56.2802 31.667 56.2802C31.6744 56.2802 31.6818 56.2802 31.6873 56.2802C45.2981 56.2802 56.3346 45.3991 56.3346 31.9801C56.3346 18.561 45.2981 7.67993 31.6873 7.67993ZM32.673 22.2221C35.286 22.151 37.8288 21.8119 40.2773 21.223C41.0151 24.0873 41.4738 27.3892 41.5459 31.0083H32.673V22.2221ZM32.673 20.2785V9.77848C35.3304 10.5041 38.023 13.9975 39.7391 19.3541C37.4627 19.8956 35.0993 20.2111 32.673 20.2785ZM30.7017 9.75478V20.2785C28.2551 20.2111 25.8732 19.8902 23.5782 19.3396C25.3091 13.9501 28.0257 10.444 30.7017 9.7566V9.75478ZM30.7017 22.2203V31.0083H21.7678C21.8399 27.3837 22.2985 24.0782 23.0382 21.212C25.5052 21.8064 28.0683 22.151 30.7017 22.2203ZM19.7835 31.0083H9.03727C9.25549 26.0108 11.1436 21.4326 14.1653 17.8062C16.3604 18.9986 18.6887 19.974 21.1298 20.7033C20.3327 23.8028 19.8556 27.298 19.7835 31.0083ZM19.7835 32.9519C19.8556 36.6603 20.3327 40.1555 21.1298 43.255C18.6905 43.9861 16.3604 44.9616 14.1653 46.154C11.1418 42.5275 9.25364 37.9494 9.03727 32.9519H19.7835ZM21.7678 32.9519H30.7017V41.729C28.0683 41.7982 25.5052 42.1446 23.0364 42.7409C22.2985 39.8765 21.8399 36.5728 21.7678 32.9519ZM30.7017 43.6707V54.2054C28.0239 53.5162 25.3036 50.0065 23.5745 44.6097C25.8695 44.0591 28.2532 43.7382 30.7017 43.6707ZM32.673 54.1835V43.6725C35.1011 43.7418 37.4645 44.0572 39.741 44.5987C38.0248 49.9609 35.3323 53.4597 32.673 54.1835ZM32.673 41.729V32.9519H41.5459C41.4738 36.5674 41.017 39.8638 40.281 42.7263C37.8307 42.1374 35.2879 41.7964 32.6749 41.7271L32.673 41.729ZM43.5302 32.9519H54.3392C54.121 37.9494 52.2348 42.5257 49.2112 46.1521C46.9976 44.9524 44.649 43.9697 42.1894 43.2368C42.9846 40.1409 43.4599 36.6531 43.532 32.9537L43.5302 32.9519ZM43.5302 31.0083C43.458 27.3016 42.9809 23.8138 42.1857 20.7143C44.6453 19.9813 46.992 19.0004 49.2038 17.8007C52.2292 21.4272 54.1192 26.0071 54.3374 31.0083H43.5302ZM47.8464 16.3166C45.8843 17.3449 43.815 18.1964 41.6513 18.8418C40.4992 15.1862 38.8811 12.2016 36.967 10.2416C41.1649 11.2353 44.9134 13.3757 47.8464 16.3166ZM26.33 10.2598C24.427 12.2162 22.8163 15.1862 21.6679 18.8236C19.5264 18.18 17.4737 17.3376 15.5301 16.3166C18.4427 13.3958 22.1635 11.259 26.33 10.2598ZM15.5227 47.6363C17.4682 46.6134 19.5227 45.7693 21.666 45.1256C22.8145 48.7667 24.4252 51.7422 26.33 53.6985C22.1598 52.6976 18.4372 50.5626 15.5227 47.6363ZM36.967 53.7168C38.8829 51.7568 40.501 48.7721 41.655 45.1092C43.8187 45.7565 45.8899 46.6043 47.852 47.6381C44.919 50.5808 41.1686 52.7267 36.967 53.7168Z" fill="black"/>
</svg>
