<svg width="64" height="64" viewBox="0 0 64 64" fill="none" xmlns="http://www.w3.org/2000/svg">
<path d="M32.1228 6C17.143 6 5 17.5287 5 31.7507C5 45.9727 17.143 57.5014 32.1228 57.5014C47.1026 57.5014 59.2456 45.9727 59.2456 31.7507C59.2456 17.5287 47.1026 6 32.1228 6ZM32.1228 55.4418C18.364 55.4418 7.16933 44.8154 7.16933 31.7507C7.16933 18.686 18.362 8.05959 32.1228 8.05959C45.8836 8.05959 57.0762 18.686 57.0762 31.7507C57.0762 44.8135 45.8836 55.4418 32.1228 55.4418Z" fill="black"/>
<path d="M32.031 18.2524C26.5242 18.2524 23.4493 21.4829 23.4106 26.6029H25.8038C25.7285 22.8894 27.7778 20.1652 31.9191 20.1652C34.88 20.1652 37.3485 22.1475 37.3485 25.0321C37.3485 26.9062 36.2842 28.421 34.88 29.6826C31.9944 32.2252 31.1865 33.4212 31.0399 36.9047H33.4637C33.6061 33.7458 33.5329 33.8095 36.4368 31.0524C38.3742 29.3213 39.7397 27.5902 39.7397 24.922C39.7397 20.741 36.2455 18.2524 32.033 18.2524H32.031Z" fill="black"/>
<path d="M32.122 41.0225C30.9254 41.0225 29.9526 41.9441 29.9526 43.0821C29.9526 44.22 30.9254 45.1416 32.122 45.1416C33.3186 45.1416 34.2913 44.22 34.2913 43.0821C34.2913 41.946 33.3206 41.0225 32.122 41.0225Z" fill="black"/>
</svg>
