<svg width="64" height="64" viewBox="0 0 64 64" fill="none" xmlns="http://www.w3.org/2000/svg">
<path d="M45.2526 20.7243V8.46143H50.7878V6.3999H12.8V8.46143H18.2275V20.7243C18.2275 24.1248 19.6377 28.2459 29.1901 32.6781C21.05 36.3876 18.2275 39.6857 18.2275 45.1457V55.863H12.8V57.9245H50.7878V55.863H45.2526V45.1457C45.2526 39.6838 42.43 36.3876 34.2899 32.5737C43.8403 28.2459 45.2526 24.1248 45.2526 20.7243ZM43.0812 45.1457V55.863H20.3968V45.1457C20.3968 40.8179 22.2426 37.829 31.7929 33.7079C41.2354 37.9333 43.0812 40.9203 43.0812 45.1457ZM31.6851 31.5439C21.6992 27.2161 20.3968 23.6089 20.3968 20.7243V8.46143H43.0812V20.7243C43.0812 23.6089 41.6709 27.2161 31.6851 31.5439Z" fill="black"/>
</svg>
