<svg width="64" height="64" viewBox="0 0 64 64" fill="none" xmlns="http://www.w3.org/2000/svg">
<path d="M31.3674 15.7947H33.0732V22.6178H31.3674V15.7947Z" fill="black"/>
<path d="M44.1599 20.9121C44.1599 14.3167 38.8133 8.97168 32.2195 8.97168C25.624 8.97168 20.2791 14.3167 20.2791 20.9121C20.2791 25.9904 23.4564 30.3191 27.9282 32.0444V55.0277H36.4571V49.0843L39.0426 46.4988L36.4571 43.9133V40.5554L40.7484 36.2641L36.5238 32.0395C40.9874 30.311 44.1599 25.9855 44.1599 20.9121ZM35.9075 30.4492L34.7513 30.8964V32.6802L38.3336 36.2657L34.7497 39.8497V44.6206L36.6278 46.5004L34.7497 48.3802V53.3251H29.6324V30.8768L28.5396 30.4557C24.5573 28.919 21.9832 25.1757 21.9832 20.9154C21.9832 15.2712 26.5737 10.6807 32.2179 10.6807C37.8604 10.6807 42.4525 15.2712 42.4525 20.9154C42.4525 25.1692 39.8817 28.9125 35.9058 30.4524L35.9075 30.4492Z" fill="black"/>
</svg>
