<svg width="64" height="64" viewBox="0 0 64 64" fill="none" xmlns="http://www.w3.org/2000/svg">
<path d="M15.4326 42.6499C12.2128 42.6499 9.6001 45.2608 9.6001 48.4806C9.6001 51.7005 12.211 54.3132 15.4326 54.3132C18.6525 54.3132 21.2652 51.7023 21.2652 48.4806C21.2652 45.259 18.6525 42.6499 15.4326 42.6499ZM15.4326 52.3678C13.2885 52.3678 11.5455 50.6248 11.5455 48.4788C11.5455 46.3328 13.2885 44.5917 15.4345 44.5917C17.5786 44.5917 19.3234 46.3347 19.3234 48.4788C19.3234 50.6229 17.5804 52.3678 15.4345 52.3678H15.4326Z" fill="black"/>
<path d="M15.4326 9.6001C12.2128 9.6001 9.6001 12.211 9.6001 15.4308C9.6001 18.6507 12.211 21.2634 15.4326 21.2634C18.6525 21.2634 21.2652 18.6525 21.2652 15.4308C21.2652 12.2092 18.6525 9.6001 15.4326 9.6001ZM15.4326 19.3198C13.2885 19.3198 11.5455 17.5768 11.5455 15.4308C11.5455 13.2849 13.2885 11.5437 15.4345 11.5437C17.5786 11.5437 19.3234 13.2867 19.3234 15.4308C19.3234 17.575 17.5804 19.3198 15.4345 19.3198H15.4326Z" fill="black"/>
<path d="M15.4326 26.084C12.2128 26.084 9.6001 28.6949 9.6001 31.9147C9.6001 35.1346 12.211 37.7473 15.4326 37.7473C18.6525 37.7473 21.2652 35.1364 21.2652 31.9147C21.2652 28.693 18.6525 26.084 15.4326 26.084ZM15.4326 35.8037C13.2885 35.8037 11.5455 34.0588 11.5455 31.9147C11.5455 29.7706 13.2885 28.0276 15.4345 28.0276C17.5786 28.0276 19.3234 29.7706 19.3234 31.9147C19.3234 34.0588 17.5804 35.8037 15.4345 35.8037H15.4326Z" fill="black"/>
<path d="M31.9568 42.6499C28.7351 42.6499 26.1243 45.2608 26.1243 48.4806C26.1243 51.7005 28.7351 54.3132 31.9568 54.3132C35.1767 54.3132 37.7894 51.7023 37.7894 48.4806C37.7894 45.259 35.1767 42.6499 31.9568 42.6499ZM31.9568 52.3678C29.8127 52.3678 28.0678 50.6248 28.0678 48.4788C28.0678 46.3328 29.8109 44.5917 31.9568 44.5917C34.1009 44.5917 35.8458 46.3347 35.8458 48.4788C35.8458 50.6229 34.1028 52.3678 31.9568 52.3678Z" fill="black"/>
<path d="M31.9568 9.6001C28.7351 9.6001 26.1243 12.211 26.1243 15.4308C26.1243 18.6507 28.7351 21.2634 31.9568 21.2634C35.1767 21.2634 37.7894 18.6525 37.7894 15.4308C37.7894 12.2092 35.1767 9.6001 31.9568 9.6001ZM31.9568 19.3198C29.8127 19.3198 28.0678 17.5768 28.0678 15.4308C28.0678 13.2849 29.8109 11.5437 31.9568 11.5437C34.1009 11.5437 35.8458 13.2867 35.8458 15.4308C35.8458 17.575 34.1028 19.3198 31.9568 19.3198Z" fill="black"/>
<path d="M31.9568 26.084C28.7351 26.084 26.1243 28.6949 26.1243 31.9147C26.1243 35.1346 28.7351 37.7473 31.9568 37.7473C35.1767 37.7473 37.7894 35.1364 37.7894 31.9147C37.7894 28.693 35.1767 26.084 31.9568 26.084ZM31.9568 35.8037C29.8127 35.8037 28.0678 34.0588 28.0678 31.9147C28.0678 29.7706 29.8109 28.0276 31.9568 28.0276C34.1009 28.0276 35.8458 29.7706 35.8458 31.9147C35.8458 34.0588 34.1028 35.8037 31.9568 35.8037Z" fill="black"/>
<path d="M48.4807 42.6499C45.2591 42.6499 42.6482 45.2608 42.6482 48.4806C42.6482 51.7005 45.2591 54.3132 48.4807 54.3132C51.7006 54.3132 54.3133 51.7023 54.3133 48.4806C54.3133 45.259 51.7006 42.6499 48.4807 42.6499ZM48.4807 52.3678C46.3366 52.3678 44.5918 50.6248 44.5918 48.4788C44.5918 46.3328 46.3348 44.5917 48.4807 44.5917C50.6249 44.5917 52.3697 46.3347 52.3697 48.4788C52.3697 50.6229 50.6267 52.3678 48.4807 52.3678Z" fill="black"/>
<path d="M48.4807 21.2634C51.7006 21.2634 54.3133 18.6525 54.3133 15.4308C54.3133 12.2092 51.7006 9.6001 48.4807 9.6001C45.2591 9.6001 42.6482 12.211 42.6482 15.4308C42.6482 18.6507 45.2591 21.2634 48.4807 21.2634ZM48.4807 11.5455C50.6249 11.5455 52.3697 13.2885 52.3697 15.4326C52.3697 17.5768 50.6267 19.3216 48.4807 19.3216C46.3366 19.3216 44.5918 17.5786 44.5918 15.4326C44.5918 13.2867 46.3348 11.5455 48.4807 11.5455Z" fill="black"/>
<path d="M48.4807 26.084C45.2591 26.084 42.6482 28.6949 42.6482 31.9147C42.6482 35.1346 45.2591 37.7473 48.4807 37.7473C51.7006 37.7473 54.3133 35.1364 54.3133 31.9147C54.3133 28.693 51.7006 26.084 48.4807 26.084ZM48.4807 35.8037C46.3366 35.8037 44.5918 34.0588 44.5918 31.9147C44.5918 29.7706 46.3348 28.0276 48.4807 28.0276C50.6249 28.0276 52.3697 29.7706 52.3697 31.9147C52.3697 34.0588 50.6267 35.8037 48.4807 35.8037Z" fill="black"/>
</svg>
