<svg width="64" height="64" viewBox="0 0 64 64" fill="none" xmlns="http://www.w3.org/2000/svg">
<path d="M47.9876 32.9954C47.9876 19.9647 39.1708 10.4365 32.3139 2.56006C25.4569 10.4365 16.6401 19.9665 16.6401 32.9954C16.6401 45.2476 25.7508 48.4565 31.3348 50.2068V60.9038H33.2947V50.2068C38.8787 48.4565 47.9894 45.2476 47.9894 32.9954H47.9876ZM33.2929 48.1648V40.5801L39.4647 34.454L38.0925 33.092L33.2929 37.8562V18.1159H31.333V27.4509L26.2394 22.3951L24.8673 23.7571L31.333 30.1749V48.1648C25.9455 46.4145 18.5982 43.4007 18.5982 32.9954C18.5982 21.6184 25.749 13.0619 32.3139 5.57388C38.8769 13.0619 46.0295 21.6184 46.0295 32.9954C46.0295 43.4007 38.6803 46.4145 33.2929 48.1648Z" fill="black"/>
</svg>
