<svg width="64" height="64" viewBox="0 0 64 64" fill="none" xmlns="http://www.w3.org/2000/svg">
<path d="M53.6369 22.5197C53.6369 11.1437 43.9237 1.91992 31.9374 1.91992C19.9511 1.91992 10.24 11.1437 10.24 22.5197C10.24 29.2201 13.6202 35.1593 18.838 38.9172L18.8278 38.923C18.9275 38.9868 19.0293 39.0602 19.1371 39.1394C19.1473 39.1472 19.1575 39.1549 19.1676 39.1607C20.8465 40.4185 23.2601 43.3591 23.2601 47.2387V61.6945H40.6188V47.2387C40.6188 43.1176 43.126 40.1615 44.9595 38.9868L44.9534 38.981C50.2221 35.225 53.6369 29.2569 53.6369 22.5197ZM25.4274 59.6349V53.4194H38.4474V59.6349H25.4274ZM31.9374 24.5793C30.7408 24.5793 29.7681 23.6558 29.7681 22.5197C29.7681 21.3836 30.7428 20.4582 31.9374 20.4582C33.132 20.4582 34.1067 21.3836 34.1067 22.5197C34.1067 23.6558 33.132 24.5793 31.9374 24.5793ZM43.649 37.3349C43.6205 37.3561 43.592 37.3774 43.5635 37.3986C41.1622 39.0196 38.4474 42.5109 38.4474 47.2387V51.3598H33.0221V26.494C34.8902 26.0342 36.2761 24.4363 36.2761 22.5216C36.2761 20.2457 34.3326 18.4005 31.9354 18.4005C29.5381 18.4005 27.5947 20.2457 27.5947 22.5216C27.5947 24.4383 28.9805 26.0361 30.8487 26.494V51.3598H25.4233V47.2387C25.4233 42.8026 22.7737 39.2438 20.525 37.559C20.5087 37.5455 20.4863 37.53 20.466 37.5145C20.3948 37.4624 20.3256 37.4121 20.2584 37.3638C20.2218 37.3329 20.1851 37.304 20.1444 37.2769C15.2258 33.7335 12.4032 28.3546 12.4032 22.5197C12.4032 12.2971 21.164 3.97951 31.9313 3.97951C42.6986 3.97951 51.4594 12.2971 51.4594 22.5197C51.4594 28.3932 48.6103 33.7914 43.6408 37.3329L43.649 37.3349Z" fill="black"/>
</svg>
