<svg width="64" height="64" viewBox="0 0 64 64" fill="none" xmlns="http://www.w3.org/2000/svg">
<path d="M42.8582 12.1836C49.1874 12.1836 54.3194 17.3889 54.3194 23.8085C54.3194 27.1068 52.9641 30.0787 50.789 32.1955L32.2795 51.0642L13.4339 31.8545C11.4566 29.7651 10.2378 26.9336 10.2378 23.8085C10.2378 17.3871 15.3699 12.1836 21.6991 12.1836C26.4662 12.1836 30.5521 15.1372 32.2795 19.338C34.007 15.1372 38.091 12.1836 42.8582 12.1836ZM42.8582 10.24C38.6429 10.24 34.7709 12.2255 32.2777 15.4982C29.7863 12.2255 25.9144 10.24 21.6973 10.24C14.3201 10.24 8.31982 16.3278 8.31982 23.8085C8.31982 27.3238 9.64463 30.6603 12.0498 33.2019L32.2777 53.8209L52.1462 33.5684C54.7706 31.0122 56.2356 27.5371 56.2356 23.8104C56.2356 16.3278 50.2336 10.2418 42.8582 10.2418V10.24Z" fill="black"/>
</svg>
