<svg width="64" height="64" viewBox="0 0 64 64" fill="none" xmlns="http://www.w3.org/2000/svg">
<path d="M34.6123 40.2387C32.1987 40.2387 29.7851 39.3668 27.9485 37.6231L29.3473 36.2951C32.2525 39.0533 36.9757 39.0515 39.8809 36.2951L52.3384 24.4661C55.2417 21.7096 55.2417 17.2253 52.3384 14.467L50.0176 12.2654C47.1142 9.50893 42.3891 9.50893 39.4858 12.2654L30.6941 20.6123L29.2953 19.2843L38.087 10.9374C41.7602 7.44819 47.7394 7.44643 51.4164 10.9374L53.7372 13.139C57.4104 16.6282 57.4104 22.3049 53.7372 25.7941L41.2797 37.6213C39.4431 39.3651 37.0277 40.2369 34.6141 40.2369L34.6123 40.2387Z" fill="black"/>
<path d="M18.7809 55.2757C16.2635 55.2757 13.8963 54.3457 12.1172 52.6548L9.79636 50.4532C6.12127 46.9622 6.12127 41.2873 9.79636 37.7981L22.2557 25.9691C25.9289 22.4817 31.9118 22.4817 35.5851 25.9691L37.9059 28.1725L36.5071 29.5005L34.1863 27.2971C31.2829 24.5406 26.5578 24.5406 23.6545 27.2971L11.1952 39.1261C8.29367 41.8808 8.29367 46.3669 11.1952 49.1251L13.516 51.3268C14.9222 52.6619 16.7922 53.3981 18.7809 53.3981C20.7697 53.3981 22.6397 52.6619 24.0459 51.3268L32.3367 43.4555L33.7354 44.7835L25.4447 52.6548C23.6656 54.3457 21.2984 55.2757 18.7809 55.2757Z" fill="black"/>
</svg>
