<svg width="64" height="64" viewBox="0 0 64 64" fill="none" xmlns="http://www.w3.org/2000/svg">
<path d="M32.2316 15.3601C21.3845 15.3601 12.9304 21.8065 2.56006 32.2564C11.4945 41.1916 18.9913 49.1651 32.2316 49.1651C45.472 49.1651 55.2023 39.0728 61.9032 32.4467C55.0446 24.6845 45.3124 15.3619 32.2316 15.3619V15.3601ZM32.2316 47.2858C20.4773 47.2858 13.3831 40.3656 5.28716 32.2582C14.9192 22.7224 22.5773 17.2394 32.2316 17.2394C43.6613 17.2394 52.5921 25.065 59.2392 32.3709C52.7034 38.842 43.8542 47.2858 32.2316 47.2858Z" fill="black"/>
<path d="M32.2312 20.9951C25.6861 20.9951 20.3618 26.0501 20.3618 32.2623C20.3618 38.4744 25.6861 43.5294 32.2312 43.5294C38.7762 43.5294 44.1006 38.4744 44.1006 32.2623C44.1006 26.0501 38.7762 20.9951 32.2312 20.9951ZM32.2312 41.6519C26.7788 41.6519 22.3413 37.4406 22.3413 32.2623C22.3413 27.084 26.7788 22.8727 32.2312 22.8727C37.6835 22.8727 42.1211 27.084 42.1211 32.2623C42.1211 37.4388 37.6835 41.6519 32.2312 41.6519Z" fill="black"/>
<path d="M32.2313 25.6876C28.4134 25.6876 25.3079 28.6361 25.3079 32.2609C25.3079 35.8857 28.4134 38.8341 32.2313 38.8341C36.0493 38.8341 39.1548 35.8857 39.1548 32.2609C39.1548 28.6361 36.0493 25.6876 32.2313 25.6876ZM32.2313 36.9565C29.5043 36.9565 27.2855 34.85 27.2855 32.2609C27.2855 29.6717 29.5043 27.5652 32.2313 27.5652C34.9584 27.5652 37.1772 29.6717 37.1772 32.2609C37.1772 34.85 34.9584 36.9565 32.2313 36.9565Z" fill="black"/>
</svg>
