<svg width="64" height="64" viewBox="0 0 64 64" fill="none" xmlns="http://www.w3.org/2000/svg">
<path d="M39.8545 22.4016L22.9622 39.1681L24.3351 40.5465L41.2274 23.78L39.8545 22.4016Z" fill="black"/>
<path d="M15.1951 42.5301C9.29876 42.5301 4.50363 37.7332 4.50363 31.8387C4.50363 25.9441 9.30058 21.1472 15.1951 21.1472C18.0503 21.1472 20.6411 22.2794 22.561 24.1081L22.5628 24.0972L22.6613 24.1829L26.4463 27.9497H22.9731V29.8933H29.7774V23.0889H27.8338V26.5859L24.0342 22.8045L24.0251 22.8136C21.7442 20.582 18.6301 19.2 15.1969 19.2C8.23034 19.2 2.56006 24.8684 2.56006 31.8368C2.56006 38.8053 8.22851 44.4737 15.1969 44.4737C18.7905 44.4737 22.0286 42.9586 24.3332 40.5428L22.9603 39.1681C21.0094 41.232 18.2545 42.5301 15.1969 42.5301H15.1951Z" fill="black"/>
<path d="M48.2431 19.2018C45.0251 19.2018 42.0933 20.4197 39.8617 22.4089L41.2346 23.7818C43.1125 22.1445 45.5611 21.1453 48.2431 21.1453C54.1395 21.1453 58.9346 25.9423 58.9346 31.8368C58.9346 37.7314 54.1376 42.5283 48.2431 42.5283C45.3989 42.5283 42.8171 41.4052 40.8991 39.5874L40.8954 39.6057L34.4576 33.1915L33.0774 34.5608L39.5225 40.9822L39.5335 40.9713C41.8034 43.1355 44.8665 44.4737 48.2413 44.4737C55.2079 44.4737 60.8782 38.8053 60.8782 31.8368C60.8782 24.8684 55.2097 19.2 48.2413 19.2L48.2431 19.2018Z" fill="black"/>
</svg>
