<svg width="64" height="64" viewBox="0 0 64 64" fill="none" xmlns="http://www.w3.org/2000/svg">
<path d="M31.8476 44.4426C38.4228 44.4426 43.7545 39.3825 43.7545 33.138V12.5827C43.7545 6.34014 38.4228 1.28003 31.8476 1.28003C25.2724 1.28003 19.9407 6.34014 19.9407 12.5827V33.138C19.9407 39.3806 25.2724 44.4426 31.8476 44.4426ZM22.1059 12.5846C22.1059 7.48586 26.4751 3.33769 31.8476 3.33769C37.2201 3.33769 41.5892 7.48586 41.5892 12.5846V33.14C41.5892 38.2406 37.2201 42.3888 31.8476 42.3888C26.4751 42.3888 22.1059 38.2406 22.1059 33.14V12.5846Z" fill="black"/>
<path d="M48.076 22.8613V33.138C48.076 41.6372 40.7927 48.5521 31.8406 48.5521C22.8886 48.5521 15.6052 41.6372 15.6052 33.138V22.8613H13.4399V33.138C13.4399 42.47 21.1934 50.0939 30.9025 50.5615H30.7641V60.9058H21.0163V62.9616H42.6629V60.9058H32.9273V50.5615H32.7788C42.4879 50.092 50.2413 42.468 50.2413 33.138V22.8613H48.076Z" fill="black"/>
</svg>
