<svg width="64" height="64" viewBox="0 0 64 64" fill="none" xmlns="http://www.w3.org/2000/svg">
<path d="M56.4891 9.75367L54.9791 8.32007L40.4449 22.1209V10.8723L24.8017 22.7102H12.6954V31.874L12.6893 31.8798L12.6954 31.8856V40.9528H20.6096L7.04004 53.8359L8.55003 55.2695L23.6295 40.9528H23.6845L25.7256 39.0169L25.6951 38.9937L38.3163 27.011V27.0631L40.451 25.0364V24.9842L56.4931 9.75367H56.4891ZM14.8281 38.9261V24.7388H25.5486L38.3102 15.0823V22.7121L38.3122 24.1476L22.7443 38.9261H14.8281Z" fill="black"/>
<path d="M38.3116 38.9255H38.3096V48.3946L27.412 40.2761L25.8918 41.7193L40.4443 52.5602V40.9523L40.4463 27.9011L38.3116 29.9279V38.9255Z" fill="black"/>
</svg>
