<svg width="64" height="64" viewBox="0 0 64 64" fill="none" xmlns="http://www.w3.org/2000/svg">
<path d="M31.9381 54.2346C44.275 54.2346 54.276 44.2428 54.276 31.9174C54.276 19.5919 44.275 9.6001 31.9381 9.6001C19.6011 9.6001 9.6001 19.5919 9.6001 31.9174C9.6001 44.2428 19.6011 54.2346 31.9381 54.2346Z" stroke="black" stroke-width="1.92" stroke-miterlimit="10"/>
<path d="M28.3844 29.8885C29.7863 29.8885 30.9228 28.7531 30.9228 27.3525C30.9228 25.9518 29.7863 24.8164 28.3844 24.8164C26.9824 24.8164 25.8459 25.9518 25.8459 27.3525C25.8459 28.7531 26.9824 29.8885 28.3844 29.8885Z" stroke="black" stroke-width="1.92" stroke-miterlimit="10"/>
<path d="M40.5687 23.8021C41.9706 23.8021 43.1071 22.6667 43.1071 21.266C43.1071 19.8654 41.9706 18.73 40.5687 18.73C39.1668 18.73 38.0303 19.8654 38.0303 21.266C38.0303 22.6667 39.1668 23.8021 40.5687 23.8021Z" stroke="black" stroke-width="1.92" stroke-miterlimit="10"/>
<path d="M28.3843 46.1193C30.9078 46.1193 32.9534 44.0755 32.9534 41.5544C32.9534 39.0333 30.9078 36.9895 28.3843 36.9895C25.8609 36.9895 23.8152 39.0333 23.8152 41.5544C23.8152 44.0755 25.8609 46.1193 28.3843 46.1193Z" stroke="black" stroke-width="1.92" stroke-miterlimit="10"/>
</svg>
