<svg width="32" height="32" viewBox="0 0 32 32" fill="none" xmlns="http://www.w3.org/2000/svg">
<g clip-path="url(#clip0_1834_15407)">
<rect x="32" y="32" width="32" height="32" rx="16" transform="rotate(-180 32 32)" fill="#EADEFF"/>
<path d="M11.9697 15.4697C11.6768 15.7626 11.6768 16.2374 11.9697 16.5303L16.7426 21.3033C17.0355 21.5962 17.5104 21.5962 17.8033 21.3033C18.0962 21.0104 18.0962 20.5355 17.8033 20.2426L13.5607 16L17.8033 11.7574C18.0962 11.4645 18.0962 10.9896 17.8033 10.6967C17.5104 10.4038 17.0355 10.4038 16.7426 10.6967L11.9697 15.4697ZM13.5 15.25L12.5 15.25L12.5 16.75L13.5 16.75L13.5 15.25Z" fill="#7523FF"/>
</g>
<defs>
<clipPath id="clip0_1834_15407">
<rect width="32" height="32" fill="white"/>
</clipPath>
</defs>
</svg>
