<svg width="64" height="64" viewBox="0 0 64 64" fill="none" xmlns="http://www.w3.org/2000/svg">
<path d="M14.6901 24.9399C13.4915 24.9399 12.5208 25.8615 12.5208 26.9995C12.5208 28.1375 13.4915 29.0591 14.6901 29.0591C15.8867 29.0591 16.8594 28.1375 16.8594 26.9995C16.8594 25.8615 15.8867 24.9399 14.6901 24.9399Z" fill="black"/>
<path d="M21.1981 24.9399C19.9995 24.9399 19.0288 25.8615 19.0288 26.9995C19.0288 28.1375 19.9995 29.0591 21.1981 29.0591C22.3947 29.0591 23.3675 28.1375 23.3675 26.9995C23.3675 25.8615 22.3947 24.9399 21.1981 24.9399Z" fill="black"/>
<path d="M59.1703 16.6998H47.237V6.3999H16.8581V16.6998H4.92476C4.32442 16.6998 3.84009 17.1596 3.84009 17.7296V48.6312C3.84009 49.2012 4.32442 49.661 4.92476 49.661H16.8581V57.9013H47.237V49.661H59.1703C59.7707 49.661 60.255 49.2012 60.255 48.6312V17.7296C60.255 17.1596 59.7707 16.6998 59.1703 16.6998ZM19.0275 8.45949H45.0656V16.6998H19.0275V8.45949ZM45.0676 55.8417H19.0295V37.3015H45.0676V55.8417ZM58.0857 47.6014H47.237V35.24H16.8581V47.6014H6.00942V18.7594H58.0857V47.6014Z" fill="black"/>
</svg>
