<svg width="28" height="27" viewBox="0 0 28 27" fill="none" xmlns="http://www.w3.org/2000/svg">
<path d="M14.3025 25.9521L14.2472 26.9506L14.2472 26.9506L14.3025 25.9521ZM2.98884 14.6384L11.6813 7.03739L0.752393 3.31003L2.98884 14.6384ZM7.19218 6.1924C11.4879 1.89664 18.4528 1.89664 22.7485 6.19241L24.1627 4.77819C19.0859 -0.298623 10.8548 -0.298624 5.77797 4.77819L7.19218 6.1924ZM22.7485 6.19241C27.0443 10.4882 27.0443 17.453 22.7485 21.7488L24.1627 23.163C29.2396 18.0862 29.2396 9.85501 24.1627 4.77819L22.7485 6.19241ZM22.7485 21.7488C20.445 24.0523 17.3755 25.1208 14.3579 24.9536L14.2472 26.9506C17.8089 27.1479 21.4402 25.8855 24.1627 23.163L22.7485 21.7488ZM14.3579 24.9536C11.7492 24.8091 9.18476 23.7413 7.19218 21.7488L5.77797 23.163C8.13185 25.5169 11.1662 26.7799 14.2472 26.9506L14.3579 24.9536ZM6.64981 6.77475C6.82218 6.57589 7.00296 6.38162 7.19218 6.1924L5.77797 4.77819C5.55514 5.00102 5.34198 5.23006 5.13853 5.46478L6.64981 6.77475Z" fill="white"/>
</svg>
