<svg width="64" height="64" viewBox="0 0 64 64" fill="none" xmlns="http://www.w3.org/2000/svg">
<path d="M47.9463 31.9801C52.7177 27.0756 54.8527 22.3041 53.0623 19.3596C52.3494 18.1854 50.7067 16.787 46.9307 16.787C44.8595 16.787 42.4401 17.2064 39.8292 17.9794C38.0953 11.7129 35.2055 7.67993 31.8689 7.67993C28.5743 7.67993 25.7137 11.6163 23.9725 17.7533C21.6643 17.1243 19.522 16.787 17.6622 16.787C13.8863 16.787 12.2436 18.1854 11.5289 19.3596C10.094 21.7189 11.0566 25.2414 14.2364 29.278C14.9456 30.1787 15.7551 31.083 16.6376 31.9874C11.8698 36.8882 9.74027 41.6578 11.5289 44.6024C12.2418 45.7747 13.8863 47.175 17.6604 47.175C19.5201 47.175 21.6643 46.8358 23.9725 46.2087C25.7119 52.3457 28.5725 56.2802 31.8671 56.2802C35.2018 56.2802 38.0917 52.2472 39.8274 45.9826C42.4383 46.7556 44.8595 47.175 46.9307 47.175C50.7067 47.175 52.3494 45.7765 53.0623 44.6024C54.8509 41.6578 52.7159 36.8828 47.9463 31.9801ZM46.9307 18.7306C48.5151 18.7306 50.579 19.015 51.4013 20.3697C52.5864 22.3206 50.8015 26.2679 46.5606 30.6199C45.0127 29.1723 43.2496 27.7265 41.2969 26.328C41.0854 24.0253 40.7499 21.8593 40.3032 19.8756C42.7701 19.1372 45.04 18.7306 46.9326 18.7306H46.9307ZM36.3158 38.593C34.9849 39.4025 33.6393 40.1464 32.2974 40.8265C30.9573 40.1464 29.6118 39.4025 28.2808 38.593C26.8806 37.7415 25.5405 36.8481 24.2678 35.931C24.1858 34.6566 24.1311 33.3457 24.1311 31.9801C24.1311 30.6127 24.184 29.2999 24.2678 28.0255C25.5131 27.1248 26.8496 26.2351 28.2772 25.3672C29.6081 24.5577 30.9555 23.8138 32.2974 23.1319C33.6393 23.812 34.9849 24.5577 36.3176 25.3672C37.4152 26.0345 38.4454 26.7182 39.4354 27.4056C39.5466 28.8678 39.6086 30.392 39.6086 31.9801C39.6086 33.5681 39.5466 35.0924 39.4354 36.5528C38.4454 37.242 37.4152 37.9257 36.3158 38.593ZM39.1874 39.0761C38.996 40.646 38.7407 42.1118 38.4399 43.4811C37.1527 43.0271 35.829 42.4911 34.4853 41.8821C35.4315 41.3716 36.3796 40.8301 37.3241 40.2558C37.9604 39.8692 38.5821 39.4754 39.1874 39.0761ZM30.1077 41.8803C28.4868 42.6169 26.8915 43.2422 25.36 43.7491C24.9917 42.1282 24.6927 40.3579 24.4812 38.4489C25.3855 39.0652 26.3099 39.6723 27.2689 40.2558C28.2133 40.8301 29.1614 41.3716 30.1077 41.8803ZM22.2331 34.3849C21.2376 33.5955 20.2932 32.7914 19.4217 31.9819C20.2786 31.1833 21.223 30.3775 22.2331 29.5734C22.2039 30.3647 22.1875 31.1669 22.1875 31.9801C22.1875 32.7932 22.2039 33.5955 22.2331 34.3849ZM24.4848 25.5003C24.6945 23.5968 24.9935 21.8301 25.36 20.2129C26.8915 20.7197 28.485 21.3451 30.1059 22.0817C29.1596 22.5922 28.2097 23.1337 27.2653 23.708C26.3044 24.2933 25.3764 24.8931 24.483 25.5021L24.4848 25.5003ZM34.4871 22.0799C35.8308 21.4709 37.1545 20.9349 38.4399 20.4809C38.7407 21.8483 38.996 23.3142 39.1874 24.884C38.5803 24.4847 37.9622 24.0927 37.3277 23.7062C36.3833 23.1319 35.4334 22.5904 34.4871 22.0799ZM41.4738 28.8879C42.8248 29.918 44.0682 30.9554 45.1677 31.9801C44.0682 33.0047 42.8248 34.0403 41.4738 35.0723C41.523 34.0622 41.5522 33.0303 41.5522 31.9801C41.5522 30.9299 41.523 29.8998 41.4738 28.8879ZM31.8689 9.62351C34.0842 9.62351 36.4453 13.0001 37.9713 18.5756C36.1371 19.2138 34.23 20.0142 32.2974 20.9568C30.0876 19.8792 27.9143 18.9895 25.8431 18.3131C27.3692 12.8962 29.6902 9.62351 31.8708 9.62351H31.8689ZM13.1917 20.3697C14.0139 19.015 16.0779 18.7306 17.6641 18.7306C19.3487 18.7306 21.3343 19.0533 23.4893 19.644C22.9733 21.883 22.5941 24.3535 22.3826 26.9972C20.7891 28.1877 19.3305 29.4038 18.0269 30.6254C17.1937 29.7721 16.4316 28.9207 15.7643 28.0747C13.1607 24.771 12.2235 21.9632 13.1917 20.3697ZM17.6622 45.2296C16.076 45.2296 14.0139 44.9451 13.1917 43.5905C12.0066 41.6396 13.7897 37.6923 18.0305 33.3402C19.3487 34.5673 20.811 35.7761 22.3826 36.9484C22.5941 39.5976 22.9733 42.0717 23.4893 44.3143C21.3343 44.905 19.3487 45.2278 17.6641 45.2278L17.6622 45.2296ZM31.8689 54.3367C29.6902 54.3367 27.3692 51.0639 25.8413 45.6489C27.9125 44.9725 30.0876 44.0828 32.2956 43.0034C34.2282 43.946 36.1353 44.7464 37.9695 45.3864C36.4453 50.96 34.0842 54.3367 31.8689 54.3367ZM51.4013 43.5923C50.579 44.9451 48.5169 45.2314 46.9307 45.2314C45.0382 45.2314 42.7683 44.8248 40.3014 44.0864C40.7481 42.1009 41.0854 39.9349 41.2969 37.6321C43.2478 36.2319 45.0127 34.7879 46.5606 33.3402C50.8033 37.6941 52.5864 41.6414 51.4013 43.5941V43.5923Z" fill="black"/>
</svg>
