<svg width="20" height="20" viewBox="0 0 20 20" fill="none" xmlns="http://www.w3.org/2000/svg">
<path fill-rule="evenodd" clip-rule="evenodd" d="M2.67918 7.7229C2.67918 10.5696 5.03562 12.9458 8.02771 12.9458C11.0198 12.9458 13.3762 10.5696 13.3762 7.7229C13.3762 4.87625 11.0198 2.5 8.02771 2.5C5.03562 2.5 2.67918 4.87625 2.67918 7.7229ZM0.179184 7.7229C0.179184 11.9881 3.69309 15.4458 8.02771 15.4458C9.61553 15.4458 11.0932 14.9818 12.3284 14.1842L18.218 19.9795L20 18.2261L14.1887 12.5078C15.2455 11.1922 15.8762 9.53003 15.8762 7.7229C15.8762 3.45766 12.3623 0 8.02771 0C3.69309 0 0.179184 3.45766 0.179184 7.7229Z" fill="#381360"/>
</svg>
