<svg width="64" height="64" viewBox="0 0 64 64" fill="none" xmlns="http://www.w3.org/2000/svg">
<path d="M48.7959 8.96329C44.8476 8.96329 41.6454 12.1423 41.6454 16.0621C41.6454 16.7428 41.7476 17.3986 41.927 18.0228L21.0222 26.7211C19.7865 24.5956 17.4779 23.1608 14.8307 23.1608C10.8824 23.1608 7.68018 26.3399 7.68018 30.2596C7.68018 34.1794 10.8824 37.3584 14.8307 37.3584C16.8995 37.3584 18.7588 36.4813 20.0648 35.0848L33.5342 44.6952C33.0078 45.6839 32.706 46.809 32.706 48.0041C32.706 51.9255 35.9082 55.1045 39.8565 55.1045C43.8048 55.1045 47.007 51.9255 47.007 48.0041C47.007 44.0844 43.8048 40.907 39.8565 40.907C37.7558 40.907 35.873 41.8124 34.5636 43.2438L21.1127 33.6484C21.6659 32.6414 21.9811 31.4863 21.9811 30.258C21.9811 29.5989 21.8839 28.963 21.7146 28.3555L42.6345 19.6506C43.8769 21.7478 46.167 23.1592 48.7959 23.1592C52.7441 23.1592 55.9463 19.9801 55.9463 16.0587C55.9463 12.139 52.7441 8.95996 48.7959 8.95996V8.96329ZM39.8582 42.6829C42.8156 42.6829 45.2215 45.0714 45.2215 48.0057C45.2215 50.9401 42.8156 53.3303 39.8582 53.3303C36.9007 53.3303 34.4949 50.9418 34.4949 48.0057C34.4949 45.0697 36.9007 42.6829 39.8582 42.6829ZM14.8323 35.5841C11.8749 35.5841 9.46905 33.1957 9.46905 30.2596C9.46905 27.3236 11.8749 24.9351 14.8323 24.9351C17.7898 24.9351 20.1956 27.3236 20.1956 30.2596C20.1956 33.1957 17.7898 35.5841 14.8323 35.5841ZM48.7959 21.3866C45.8384 21.3866 43.4326 18.9981 43.4326 16.0621C43.4326 13.126 45.8384 10.7376 48.7959 10.7376C51.7533 10.7376 54.1591 13.126 54.1591 16.0621C54.1591 18.9981 51.7533 21.3866 48.7959 21.3866Z" fill="black"/>
</svg>
