<svg width="64" height="64" viewBox="0 0 64 64" fill="none" xmlns="http://www.w3.org/2000/svg">
<path d="M31.7587 7.67993L13.4399 11.1806C13.4399 11.1806 13.4399 33.3512 13.4399 37.3386C13.4399 43.6598 18.9358 51.8279 31.7587 56.3003C44.5817 51.8279 50.0775 43.6598 50.0775 37.3386C50.0775 33.3512 50.0775 11.1806 50.0775 11.1806L31.7587 7.67993ZM48.1503 37.3368C48.1503 42.7828 43.0396 50.0757 31.7587 54.2564C20.4778 50.0757 15.3671 42.7828 15.3671 37.3368V12.8324L31.7587 9.62351L48.1503 12.7358V37.3368Z" fill="black"/>
<path d="M26.2629 22.4592L24.8167 23.8212L30.6017 29.6556L24.8167 35.4899L26.2629 36.8519L31.9522 31.0175L37.7372 36.8519L39.0877 35.4899L33.3026 29.6556L39.0877 23.8212L37.7372 22.4592L31.9522 28.2936L26.2629 22.4592Z" fill="black"/>
</svg>
