<svg width="64" height="64" viewBox="0 0 64 64" fill="none" xmlns="http://www.w3.org/2000/svg">
<path d="M31.925 36.4602C27.6368 36.4602 24.1489 39.9481 24.1489 44.2363C24.1489 48.5246 27.6368 52.0124 31.925 52.0124C36.2133 52.0124 39.7012 48.5246 39.7012 44.2363C39.7012 39.9481 36.2133 36.4602 31.925 36.4602ZM31.925 50.0689C28.7089 50.0689 26.0925 47.4525 26.0925 44.2363C26.0925 41.0201 28.7089 38.4038 31.925 38.4038C35.1412 38.4038 37.7576 41.0201 37.7576 44.2363C37.7576 47.4525 35.1412 50.0689 31.925 50.0689Z" fill="black"/>
<path d="M31.9252 27.7123C25.3633 27.7123 19.6985 31.5666 17.033 37.122L18.4879 38.577C20.7031 33.3406 25.8903 29.6577 31.9252 29.6577C37.9601 29.6577 43.1472 33.3424 45.3625 38.577L46.8174 37.122C44.1518 31.5666 38.487 27.7123 31.9252 27.7123Z" fill="black"/>
<path d="M32.0199 12.16C21.1698 12.16 11.5686 17.5805 5.75977 25.8489L7.15272 27.2419C12.586 19.3163 21.704 14.1036 32.0181 14.1036C42.2847 14.1036 51.3627 19.267 56.805 27.1307L58.198 25.7377C52.3818 17.5313 42.819 12.16 32.0163 12.16H32.0199Z" fill="black"/>
<path d="M32.0199 19.9362C23.3084 19.9362 15.6563 24.5471 11.3662 31.4536L12.781 32.8684C16.6791 26.2974 23.8408 21.8797 32.0199 21.8797C40.1497 21.8797 47.2768 26.2427 51.1894 32.7481L52.6006 31.3369C48.2978 24.4943 40.6839 19.9343 32.0199 19.9343V19.9362Z" fill="black"/>
</svg>
