<svg width="64" height="64" viewBox="0 0 64 64" fill="none" xmlns="http://www.w3.org/2000/svg">
<path d="M32.2793 55.3614C34.5476 55.3614 36.3864 53.5068 36.3864 51.2191C36.3864 48.9314 34.5476 47.0769 32.2793 47.0769C30.011 47.0769 28.1721 48.9314 28.1721 51.2191C28.1721 53.5068 30.011 55.3614 32.2793 55.3614Z" stroke="black" stroke-width="1.92" stroke-miterlimit="10"/>
<path d="M15.1216 45.0533C17.3899 45.0533 19.2287 43.1987 19.2287 40.911C19.2287 38.6233 17.3899 36.7688 15.1216 36.7688C12.8532 36.7688 11.0144 38.6233 11.0144 40.911C11.0144 43.1987 12.8532 45.0533 15.1216 45.0533Z" stroke="black" stroke-width="1.92" stroke-miterlimit="10"/>
<path d="M32.2793 8.03684C30.011 8.03684 28.1721 9.89137 28.1721 12.1791C28.1721 14.4668 30.011 16.3213 32.2793 16.3213C34.5476 16.3213 36.3865 14.4668 36.3865 12.1791C36.3865 9.89137 34.5476 8.03684 32.2793 8.03684Z" stroke="black" stroke-width="1.92" stroke-miterlimit="10"/>
<path d="M52.7714 19.868C51.6372 17.9036 49.1117 17.2384 47.1305 18.3822C45.1493 19.5261 44.4626 22.0458 45.5968 24.0102C46.731 25.9747 49.2565 26.6399 51.2377 25.496C53.2189 24.3522 53.9055 21.8324 52.7714 19.868Z" stroke="black" stroke-width="1.92" stroke-miterlimit="10"/>
<path d="M11.787 19.8681C10.6528 21.8325 11.3395 24.3522 13.3207 25.4961C15.3019 26.6399 17.8274 25.9747 18.9616 24.0103C20.0957 22.0459 19.4091 19.5261 17.4279 18.3823C15.4467 17.2384 12.9212 17.9036 11.787 19.8681Z" stroke="black" stroke-width="1.92" stroke-miterlimit="10"/>
<path d="M52.7713 43.5301C53.9055 41.5657 53.2188 39.046 51.2377 37.9021C49.2565 36.7583 46.731 37.4235 45.5968 39.3879C44.4626 41.3523 45.1493 43.8721 47.1305 45.0159C49.1117 46.1598 51.6372 45.4946 52.7713 43.5301Z" stroke="black" stroke-width="1.92" stroke-miterlimit="10"/>
<path d="M32.3201 16.3201V47.0401" stroke="black" stroke-width="1.92"/>
<path d="M19.0178 24L45.6221 39.36" stroke="black" stroke-width="1.92"/>
<path d="M45.6221 24L19.0178 39.36" stroke="black" stroke-width="1.92"/>
</svg>
