<svg width="64" height="64" viewBox="0 0 64 64" fill="none" xmlns="http://www.w3.org/2000/svg">
<path d="M29.7187 33.4184C29.7575 33.4658 29.8111 33.5059 29.8537 33.5514C30.3973 34.2151 31.2166 34.649 32.1486 34.649C33.7815 34.649 35.1056 33.3454 35.1056 31.7337C35.1056 30.8768 34.7247 30.1165 34.1311 29.5823C34.0534 29.4966 33.9831 29.409 33.8685 29.3234L21.9165 20.3567C21.5689 20.0923 21.0677 20.0795 20.7034 20.3567C20.2688 20.6867 20.1874 21.3029 20.5222 21.7314L29.7187 33.4184Z" fill="black"/>
<path d="M32.1486 7.43359C31.8249 7.43359 31.5087 7.47006 31.1888 7.481V8.48925H31.161V19.0932H33.1324V9.4264C45.1786 9.94055 54.8227 19.7332 54.8227 31.7319C54.8227 44.0589 44.6516 54.0867 32.1467 54.0867C19.6418 54.0867 9.47075 44.0589 9.47075 31.7319C9.47075 25.5675 12.0135 19.9793 16.1208 15.9317L14.719 14.5497C10.2567 18.9455 7.49756 25.0224 7.49756 31.7319C7.49756 45.1528 18.5304 56.0303 32.1449 56.0303C45.7593 56.0303 56.7922 45.1528 56.7922 31.7319C56.7922 18.311 45.7593 7.43359 32.1449 7.43359H32.1486Z" fill="black"/>
</svg>
