<svg width="64" height="64" viewBox="0 0 64 64" fill="none" xmlns="http://www.w3.org/2000/svg">
<path d="M56.3864 31.7319C56.3864 18.5262 45.6241 7.82373 32.3487 7.82373C19.0733 7.82373 8.31104 18.5262 8.31104 31.7319C8.31104 44.9358 19.0733 55.64 32.3487 55.64C45.6241 55.64 56.3864 44.9358 56.3864 31.7319ZM10.2358 31.7319C10.2358 19.6037 20.1566 9.73631 32.3505 9.73631C44.5444 9.73631 54.4653 19.6037 54.4653 31.7319C54.4653 43.8601 44.5463 53.7275 32.3505 53.7275C20.1566 53.7275 10.2358 43.8601 10.2358 31.7319Z" fill="black"/>
<path d="M42.6836 30.2807L44.0438 28.9278L32.3503 17.2974L20.6587 28.9278L22.0189 30.2807L31.3898 20.9603V44.1646H33.3127V20.9603L42.6836 30.2807Z" fill="black"/>
</svg>
