<svg width="64" height="64" viewBox="0 0 64 64" fill="none" xmlns="http://www.w3.org/2000/svg">
<path d="M32.2883 8.95996C19.4035 8.95996 8.95996 19.4035 8.95996 32.2883C8.95996 45.1732 19.4035 55.6167 32.2883 55.6167C45.1732 55.6167 55.6167 45.1732 55.6167 32.2883C55.6167 19.4035 45.1732 8.95996 32.2883 8.95996ZM32.2883 10.9035C44.0792 10.9035 53.6731 20.4956 53.6731 32.2883C53.6731 37.4754 51.8152 42.2377 48.7303 45.9444C46.5989 45.0547 41.565 43.308 38.4509 42.3873C38.1847 42.3034 38.1428 42.2906 38.1428 41.1839C38.1428 40.2705 38.5183 39.3516 38.8848 38.573C39.2823 37.7271 39.7527 36.3049 39.9222 35.0287C40.3945 34.4799 41.0381 33.3969 41.4519 31.3348C41.8148 29.517 41.6452 28.8552 41.4045 28.2353C41.379 28.1696 41.3535 28.1058 41.3334 28.0402C41.2423 27.6135 41.3681 25.4001 41.678 23.6808C41.8932 22.5012 41.6233 19.9942 39.9988 17.9212C38.9741 16.6103 37.0123 15.0022 33.4297 14.7779L31.4642 14.7797C27.9417 15.0022 25.9799 16.6103 24.9553 17.9212C23.3326 19.9942 23.0627 22.503 23.2779 23.6808C23.5915 25.4001 23.7136 27.6135 23.6261 28.0329C23.6079 28.1058 23.5805 28.1696 23.5532 28.2353C23.3143 28.857 23.143 29.517 23.5076 31.3348C23.9197 33.3969 24.5633 34.4799 25.0373 35.0287C25.205 36.3049 25.6754 37.7271 26.0747 38.573C26.3646 39.1911 26.5014 40.0334 26.5014 41.224C26.5014 42.3307 26.4594 42.3435 26.2115 42.4219C22.9898 43.3736 17.8628 45.226 15.9503 46.0629C12.8052 42.3399 10.9035 37.532 10.9035 32.2883C10.9035 20.4974 20.4956 10.9035 32.2883 10.9035ZM17.3578 47.578C19.5475 46.6846 23.9105 45.1276 26.7785 44.2816C28.4449 43.7565 28.4449 42.3526 28.4449 41.224C28.4449 40.2887 28.3811 38.9103 27.8341 37.7453C27.4586 36.9467 27.0283 35.5774 26.9335 34.5072C26.9134 34.2574 26.7949 34.024 26.6053 33.86C26.33 33.6193 25.7702 32.7368 25.4129 30.9555C25.1303 29.5462 25.2506 29.238 25.3655 28.939C25.4147 28.8114 25.4621 28.6856 25.5004 28.5452C25.7338 27.6919 25.4731 24.8896 25.1905 23.3344C25.0665 22.658 25.2233 20.7381 26.4868 19.1209C27.6208 17.6714 29.3365 16.8637 31.5262 16.7233L33.3695 16.7215C35.6176 16.8637 37.3332 17.6714 38.4691 19.1209C39.7344 20.7381 39.8876 22.658 39.7636 23.3362C39.4828 24.8896 39.2203 27.6938 39.4537 28.5452C39.4938 28.6874 39.5394 28.8132 39.5886 28.9409C39.7053 29.238 39.8238 29.548 39.543 30.9574C39.1856 32.7387 38.6241 33.6211 38.3488 33.8618C38.161 34.0277 38.0425 34.2592 38.0206 34.509C37.9276 35.5811 37.4991 36.9485 37.1236 37.7471C36.6933 38.6624 36.1974 39.8821 36.1974 41.1857C36.1974 42.3143 36.1974 43.7182 37.882 44.2488C40.626 45.0601 45.0109 46.5661 47.3264 47.4759C43.4593 51.3047 38.1464 53.6749 32.2883 53.6749C26.4849 53.6749 21.2158 51.3467 17.3596 47.5817L17.3578 47.578Z" fill="black"/>
</svg>
