<svg width="20" height="20" viewBox="0 0 20 20" fill="none" xmlns="http://www.w3.org/2000/svg">
<g clip-path="url(#clip0_3604_40028)">
<path d="M0 14.7674V5.23256C0 2.35294 2.35294 0 5.23256 0H14.7674C17.6471 0 20 2.35294 20 5.23256V14.7674C20 17.6471 17.6471 20 14.7674 20H5.23256C2.35294 20 0 17.6471 0 14.7674Z" fill="#381360"/>
<path d="M5.8068 8.13951H7.7425V14.3639H5.8068V8.13951ZM6.77807 5.04785C7.4005 5.04785 7.89982 5.54717 7.89982 6.1696C7.89982 6.7852 7.4005 7.29135 6.77807 7.29135C6.15563 7.29135 5.65632 6.7852 5.65632 6.1696C5.64948 5.54717 6.15563 5.04785 6.77807 5.04785Z" fill="white"/>
<path d="M8.96094 8.13974H10.8146V8.98789H10.8419C11.1018 8.49542 11.7311 7.98242 12.675 7.98242C14.6313 7.98242 14.9938 9.26833 14.9938 10.9441V14.3641H13.0581V11.3408C13.0581 10.6158 13.0444 9.69241 12.0526 9.69241C11.0471 9.69241 10.8898 10.479 10.8898 11.293V14.3641H8.96094V8.13974Z" fill="white"/>
</g>
<rect x="0.5" y="0.5" width="19" height="19" stroke="black"/>
<defs>
<clipPath id="clip0_3604_40028">
<rect width="20" height="20" fill="white"/>
</clipPath>
</defs>
</svg>
