<svg width="30" height="31" viewBox="0 0 30 31" fill="none" xmlns="http://www.w3.org/2000/svg">
<path d="M22.4064 30.6309H17.3246L15.0042 29.8657L12.7003 30.6309H7.59357C3.40172 30.6309 0 27.2291 0 23.0373V8.22443C0 4.03258 3.40172 0.630859 7.59357 0.630859H22.4064C26.5983 0.630859 30 4.03258 30 8.22443V23.0373C30 27.2291 26.5983 30.6309 22.4064 30.6309Z" fill="#381360"/>
<path d="M12.6851 12.3663V15.6267H8.92578V19.91H12.6851V30.6225H17.3178V19.91H20.7694L21.4265 15.6267H17.3178V12.8487C17.3178 11.676 17.8917 10.5366 19.7298 10.5366H21.6011V6.89364C21.6011 6.89364 19.9044 6.60254 18.2826 6.60254C14.8975 6.60254 12.6851 8.64856 12.6851 12.3663Z" fill="white"/>
</svg>
