<svg width="30" height="31" viewBox="0 0 30 31" fill="none" xmlns="http://www.w3.org/2000/svg">
<g clip-path="url(#clip0_4930_85536)">
<path d="M0 22.782V8.4797C0 4.16027 3.52941 0.630859 7.84884 0.630859H22.1512C26.4706 0.630859 30 4.16027 30 8.4797V22.782C30 27.1014 26.4706 30.6309 22.1512 30.6309H7.84884C3.52941 30.6309 0 27.1014 0 22.782Z" fill="#381360"/>
<path d="M8.7102 12.8406H11.6138V22.1771H8.7102V12.8406ZM10.1671 8.20312C11.1008 8.20312 11.8497 8.9521 11.8497 9.88575C11.8497 10.8091 11.1008 11.5684 10.1671 11.5684C9.23345 11.5684 8.48448 10.8091 8.48448 9.88575C8.47422 8.9521 9.23345 8.20312 10.1671 8.20312Z" fill="white"/>
<path d="M13.4414 12.8405H16.2218V14.1127H16.2629C16.6528 13.374 17.5967 12.6045 19.0125 12.6045C21.9469 12.6045 22.4907 14.5334 22.4907 17.047V22.177H19.5871V17.6421C19.5871 16.5546 19.5666 15.1695 18.0789 15.1695C16.5707 15.1695 16.3347 16.3494 16.3347 17.5703V22.177H13.4414V12.8405Z" fill="white"/>
</g>
<defs>
<clipPath id="clip0_4930_85536">
<rect width="30" height="30" fill="white" transform="translate(0 0.630859)"/>
</clipPath>
</defs>
</svg>
