<svg width="30" height="31" viewBox="0 0 30 31" fill="none" xmlns="http://www.w3.org/2000/svg">
<path d="M22.4064 30.6309H7.59357C3.40172 30.6309 0 27.2291 0 23.0373V8.22443C0 4.03258 3.40172 0.630859 7.59357 0.630859H22.4064C26.5983 0.630859 30 4.03258 30 8.22443V23.0373C30 27.2291 26.5983 30.6309 22.4064 30.6309Z" fill="#381360"/>
<path d="M23.1798 10.6534C22.6642 10.8863 22.0986 11.0276 21.5497 11.1191C21.8158 11.0775 22.1984 10.5952 22.3564 10.4039C22.5893 10.1128 22.7889 9.77175 22.897 9.41412C22.9137 9.38916 22.922 9.34758 22.897 9.33094C22.8638 9.31431 22.8388 9.32263 22.8139 9.33926C22.1984 9.67195 21.558 9.91315 20.876 10.0795C20.8178 10.0961 20.7762 10.0795 20.7429 10.0462C20.6847 9.97968 20.6348 9.92146 20.5766 9.87156C20.2938 9.63036 19.986 9.43907 19.6367 9.29768C19.1793 9.1147 18.6886 9.03153 18.1978 9.0648C17.7238 9.09806 17.258 9.23114 16.8338 9.44738C16.4097 9.67195 16.0354 9.97968 15.736 10.3456C15.4282 10.7282 15.1954 11.1857 15.0789 11.6597C14.9625 12.1255 14.9708 12.583 15.0456 13.0487C15.054 13.1236 15.0456 13.1402 14.9791 13.1236C12.3176 12.7243 10.1136 11.7762 8.32538 9.73849C8.25052 9.647 8.20894 9.647 8.1424 9.7468C7.36059 10.9195 7.74318 12.8075 8.71628 13.739C8.84936 13.8638 8.98243 13.9886 9.12383 14.0967C9.07392 14.105 8.41687 14.0385 7.84298 13.739C7.76813 13.6891 7.72654 13.7141 7.71823 13.8056C7.70991 13.9303 7.71823 14.0468 7.74318 14.1882C7.89289 15.3775 8.71628 16.4837 9.84742 16.9079C9.98049 16.9661 10.1302 17.016 10.2716 17.041C10.0138 17.0992 9.74761 17.1408 9.0157 17.0825C8.92421 17.0659 8.89094 17.1075 8.92421 17.199C9.48146 18.7127 10.6791 19.1618 11.5691 19.4197C11.6855 19.4446 11.8103 19.4446 11.9267 19.4696C11.9184 19.4779 11.9101 19.4779 11.9018 19.4945C11.6023 19.952 10.571 20.2846 10.0969 20.451C9.22363 20.7587 8.27548 20.8918 7.35227 20.8003C7.20256 20.7754 7.17761 20.7837 7.13602 20.8003C7.09444 20.8253 7.12771 20.8585 7.17761 20.9001C7.3689 21.0249 7.55188 21.133 7.75149 21.2411C8.3337 21.5489 8.94917 21.7984 9.58959 21.973C12.8915 22.8879 16.601 22.2142 19.0795 19.7523C21.0257 17.8228 21.7077 15.153 21.7077 12.4831C21.7077 12.375 21.8324 12.3251 21.9073 12.2669C22.4147 11.8843 22.8222 11.4352 23.1965 10.9278C23.2796 10.8114 23.2796 10.7116 23.2796 10.67C23.2796 10.6617 23.2796 10.6534 23.2796 10.6534C23.2464 10.6118 23.2464 10.6284 23.1798 10.6534Z" fill="white"/>
</svg>
